<svg width="327" height="225" viewBox="0 0 327 225" fill="none" xmlns="http://www.w3.org/2000/svg">
<circle opacity="0.4" cx="162.5" cy="164.5" r="121.5" stroke="url(#paint0_linear_44_10282)" strokeWidth="4"/>
<circle opacity="0.15" cx="163.5" cy="163.5" r="161.5" stroke="url(#paint1_linear_44_10282)" strokeWidth="4"/>
<path opacity="0.7" d="M160.5 239.047C117.5 239.047 82.5156 204.062 82.5156 161.062C82.5156 118.063 117.5 83.0781 160.5 83.0781C203.5 83.0781 238.484 118.063 238.484 161.062C238.484 204.062 203.5 239.047 160.5 239.047ZM160.5 89.8594C121.237 89.8594 89.2969 121.799 89.2969 161.062C89.2969 200.326 121.237 232.266 160.5 232.266C199.763 232.266 231.703 200.326 231.703 161.062C231.703 121.799 199.763 89.8594 160.5 89.8594Z" fill="url(#paint2_linear_44_10282)"/>
<path d="M106.25 242.438C128.721 242.438 146.938 224.221 146.938 201.75C146.938 179.279 128.721 161.062 106.25 161.062C83.7789 161.062 65.5625 179.279 65.5625 201.75C65.5625 224.221 83.7789 242.438 106.25 242.438Z" fill="#FF5090"/>
<path d="M133.375 225.484C133.375 219.866 128.821 215.312 123.203 215.312H89.2969C83.6786 215.312 79.125 219.866 79.125 225.484V232.072C86.3233 238.515 95.8272 242.438 106.25 242.438C116.673 242.438 126.177 238.518 133.375 232.072V225.484Z" fill="#FAB400"/>
<path d="M92.6875 215.312C92.6875 222.802 98.7601 228.875 106.25 228.875C113.74 228.875 119.812 222.802 119.812 215.312H92.6875Z" fill="#00A0C8"/>
<path d="M106.25 222.094C102.503 222.094 99.4688 219.059 99.4688 215.312V205.141H113.031V215.312C113.031 219.059 109.997 222.094 106.25 222.094Z" fill="#D2AA82"/>
<path d="M109.641 208.531H102.859C97.2411 208.531 92.6875 203.978 92.6875 198.359V188.188C92.6875 184.441 95.7221 181.406 99.4688 181.406H113.031C116.778 181.406 119.812 184.441 119.812 188.188V198.359C119.812 203.978 115.259 208.531 109.641 208.531Z" fill="#F0C8A0"/>
<path d="M113.031 181.406H99.4688C95.7221 181.406 92.6875 184.441 92.6875 188.188V181.406C92.6875 177.66 95.7221 174.625 99.4688 174.625H113.031C116.778 174.625 119.812 177.66 119.812 181.406V188.188C119.812 184.441 116.778 181.406 113.031 181.406Z" fill="#0A5078"/>
<path d="M214.75 242.438C237.221 242.438 255.438 224.221 255.438 201.75C255.438 179.279 237.221 161.062 214.75 161.062C192.279 161.062 174.062 179.279 174.062 201.75C174.062 224.221 192.279 242.438 214.75 242.438Z" fill="#0A5078"/>
<path d="M241.875 225.484C241.875 219.866 237.321 215.312 231.703 215.312H197.797C192.179 215.312 187.625 219.866 187.625 225.484V232.072C194.823 238.515 204.327 242.438 214.75 242.438C225.173 242.438 234.677 238.518 241.875 232.072V225.484Z" fill="#00A0C8"/>
<path d="M201.188 215.312C201.188 222.802 207.26 228.875 214.75 228.875C222.24 228.875 228.312 222.802 228.312 215.312H201.188Z" fill="#0A5078"/>
<path d="M214.75 222.094C211.003 222.094 207.969 219.059 207.969 215.312V205.141H221.531V215.312C221.531 219.059 218.497 222.094 214.75 222.094Z" fill="#D2AA82"/>
<path d="M218.141 208.531H211.359C205.741 208.531 201.188 203.978 201.188 198.359V188.188C201.188 184.441 204.222 181.406 207.969 181.406H221.531C225.278 181.406 228.312 184.441 228.312 188.188V198.359C228.312 203.978 223.759 208.531 218.141 208.531Z" fill="#F0C8A0"/>
<path d="M221.531 181.406H207.969C204.222 181.406 201.188 184.441 201.188 188.188V181.406C201.188 177.66 204.222 174.625 207.969 174.625H221.531C225.278 174.625 228.312 177.66 228.312 181.406V188.188C228.312 184.441 225.278 181.406 221.531 181.406Z" fill="#DC9600"/>
<path d="M160.5 133.938C182.971 133.938 201.188 115.721 201.188 93.25C201.188 70.7789 182.971 52.5625 160.5 52.5625C138.029 52.5625 119.812 70.7789 119.812 93.25C119.812 115.721 138.029 133.938 160.5 133.938Z" fill="#9685FF"/>
<path d="M163.891 59.3438H157.109C147.748 59.3438 140.156 66.9354 140.156 76.2969V110.203C140.156 112.075 141.675 113.594 143.547 113.594H177.453C179.325 113.594 180.844 112.075 180.844 110.203V76.2969C180.844 66.9354 173.252 59.3438 163.891 59.3438Z" fill="#C80A50"/>
<path d="M174.062 106.812H146.938C139.448 106.812 133.375 112.885 133.375 120.375V123.572C140.573 130.015 150.077 133.938 160.5 133.938C170.923 133.938 180.427 130.018 187.625 123.572V120.375C187.625 112.885 181.552 106.812 174.062 106.812Z" fill="#C80A50"/>
<path d="M146.938 106.812C146.938 114.302 153.01 120.375 160.5 120.375C167.99 120.375 174.062 114.302 174.062 106.812H146.938Z" fill="#00A0C8"/>
<path d="M160.5 113.594C156.753 113.594 153.719 110.559 153.719 106.812V96.6406H167.281V106.812C167.281 110.559 164.247 113.594 160.5 113.594Z" fill="#D2AA82"/>
<path d="M163.891 100.031H157.109C151.491 100.031 146.938 95.4776 146.938 89.8594V79.6875C146.938 75.9409 149.972 72.9062 153.719 72.9062H157.109C157.109 76.6529 160.144 79.6875 163.891 79.6875H174.062V89.8594C174.062 95.4776 169.509 100.031 163.891 100.031Z" fill="#F0C8A0"/>
<path d="M174.062 201.75C174.062 202.106 174.066 202.462 174.076 202.818C189.873 197.227 201.188 182.162 201.188 164.453C201.188 164.097 201.184 163.741 201.174 163.385C185.377 168.976 174.062 184.041 174.062 201.75Z" fill="#00325A"/>
<path d="M119.826 163.385C119.816 163.741 119.812 164.097 119.812 164.453C119.812 182.162 131.127 197.227 146.924 202.818C146.934 202.462 146.938 202.106 146.938 201.75C146.938 184.041 135.623 168.976 119.826 163.385Z" fill="#A00028"/>
<circle cx="160.284" cy="164.762" r="35.283" transform="rotate(-6.64521 160.284 164.762)" fill="#F0C53A"/>
<path d="M125.514 158.765C127.055 149.833 131.974 141.836 139.252 136.432C146.53 131.029 155.608 128.634 164.604 129.744L164.051 134.224C156.206 133.256 148.289 135.344 141.942 140.056C135.595 144.768 131.305 151.742 129.962 159.532L125.514 158.765Z" fill="#F9D356"/>
<path d="M195.467 167.408C194.788 176.446 190.655 184.877 183.927 190.951C177.199 197.025 168.391 200.277 159.33 200.032L159.452 195.52C167.354 195.734 175.035 192.898 180.903 187.601C186.77 182.304 190.374 174.952 190.967 167.069L195.467 167.408Z" fill="#E0B622"/>
<circle cx="160.284" cy="164.762" r="34.882" transform="rotate(-6.64521 160.284 164.762)" stroke="#E0C427" strokeWidth="0.801886"/>
<circle cx="160.284" cy="164.762" r="26.4622" transform="rotate(-6.64521 160.284 164.762)" stroke="#CFA51D" strokeWidth="1.60377"/>
<circle cx="160.284" cy="164.762" r="28.4669" transform="rotate(-6.64521 160.284 164.762)" stroke="#F4D956" strokeWidth="2.40566"/>
<g filter="url(#filter0_d_44_10282)">
<path fillRule="evenodd" clipRule="evenodd" d="M160.26 148.727L150.632 158.354L154.071 161.793L160.255 155.609L166.505 161.858L169.943 158.42L163.694 152.17L163.698 152.165L160.26 148.727ZM144.378 164.44L148.063 160.755L151.749 164.44L148.063 168.126L144.378 164.44ZM156.56 164.44L160.246 160.755L163.932 164.44L160.246 168.126L156.56 164.44ZM172.428 160.755L168.743 164.441L172.428 168.126L176.114 164.441L172.428 160.755ZM150.632 170.679L160.26 180.306L163.699 176.868L163.694 176.863L169.943 170.613L166.505 167.175L160.255 173.424L154.071 167.24L150.632 170.679Z" fill="#292929"/>
</g>
<defs>
<filter id="filter0_d_44_10282" x="144.378" y="148.727" width="31.7363" height="33.9855" filterUnits="userSpaceOnUse" colorInterpolationFilters="sRGB">
<feFlood floodOpacity="0" result="BackgroundImageFix"/>
<feColorMatrix in="SourceAlpha" type="matrix" values="0 0 0 0 0 0 0 0 0 0 0 0 0 0 0 0 0 0 127 0" result="hardAlpha"/>
<feOffset dy="2.40566"/>
<feComposite in2="hardAlpha" operator="out"/>
<feColorMatrix type="matrix" values="0 0 0 0 0.882353 0 0 0 0 0.686275 0 0 0 0 0.101961 0 0 0 1 0"/>
<feBlend mode="normal" in2="BackgroundImageFix" result="effect1_dropShadow_44_10282"/>
<feBlend mode="normal" in="SourceGraphic" in2="effect1_dropShadow_44_10282" result="shape"/>
</filter>
<linearGradient id="paint0_linear_44_10282" x1="43.0492" y1="269.99" x2="417.164" y2="245.035" gradientUnits="userSpaceOnUse">
<stop stopColor="#F0C53A"/>
<stop offset="1" stopColor="#F1DC7F"/>
</linearGradient>
<linearGradient id="paint1_linear_44_10282" x1="5.36065" y1="303.156" x2="500.646" y2="270.12" gradientUnits="userSpaceOnUse">
<stop stopColor="#F0C53A"/>
<stop offset="1" stopColor="#F1DC7F"/>
</linearGradient>
<linearGradient id="paint2_linear_44_10282" x1="85.0725" y1="227.674" x2="321.308" y2="211.917" gradientUnits="userSpaceOnUse">
<stop stopColor="#F0C53A"/>
<stop offset="1" stopColor="#F1DC7F"/>
</linearGradient>
</defs>
</svg>
