<svg width="61" height="80" viewBox="0 0 61 80" fill="none" xmlns="http://www.w3.org/2000/svg">
<g clipPath="url(#clip0_44_10186)">
<path d="M40.4183 36.4164H22.4788C20.932 36.4164 19.6778 35.1623 19.6778 33.6154C19.6778 32.0686 20.932 30.8145 22.4788 30.8145H40.4183C41.9652 30.8145 43.2193 32.0686 43.2193 33.6154C43.2193 35.1623 41.9655 36.4164 40.4183 36.4164Z" fill="#939598"/>
<path d="M41.3975 30.9939C41.5115 31.2991 41.5769 31.6279 41.5769 31.9731C41.5769 33.5199 40.3227 34.7741 38.7759 34.7741H20.8364C20.4915 34.7741 20.1623 34.7087 19.8572 34.5947C20.2546 35.6581 21.2769 36.4165 22.4788 36.4165H40.4183C41.9652 36.4165 43.2193 35.1624 43.2193 33.6155C43.2193 32.4136 42.4609 31.3914 41.3975 30.9939Z" fill="#808285"/>
<path d="M51.1578 4.34717H11.7396V22.3662C11.7396 23.5304 12.3555 24.6075 13.3591 25.1974L22.9081 30.8145H39.9893L49.5384 25.1974C50.5416 24.6071 51.1578 23.53 51.1578 22.3662V4.34717Z" fill="#9685FF"/>
<path d="M13.7105 20.2018C13.3479 20.2018 13.0536 19.9075 13.0536 19.5449V9.03336C13.0536 8.67071 13.3479 8.37639 13.7105 8.37639C14.0732 8.37639 14.3675 8.67071 14.3675 9.03336V19.5449C14.3675 19.9078 14.0732 20.2018 13.7105 20.2018ZM13.7105 7.06245C13.3479 7.06245 13.0536 6.76813 13.0536 6.40548V6.3181C13.0536 5.95546 13.3479 5.66113 13.7105 5.66113C14.0732 5.66113 14.3675 5.95546 14.3675 6.3181V6.40548C14.3675 6.76846 14.0732 7.06245 13.7105 7.06245Z" fill="#B171F4"/>
<path d="M47.873 4.34717V19.0814C47.873 20.2455 47.2571 21.3226 46.2535 21.9126L36.7045 27.5297H19.6233L11.7932 22.9236C11.9558 23.8657 12.5188 24.703 13.3591 25.1974L22.9081 30.8145H39.9893L49.5384 25.1974C50.5416 24.6071 51.1578 23.53 51.1578 22.3662V4.34717H47.873Z" fill="#7C67FF"/>
<path d="M49.5154 4.34717V20.7238C49.5154 21.8879 48.8995 22.965 47.896 23.555L38.3469 29.1721H21.2657L12.0537 23.7534C12.3303 24.3457 12.7767 24.8548 13.3587 25.1974L22.9078 30.8145H39.989L49.5381 25.1974C50.5412 24.6071 51.1575 23.53 51.1575 22.3662V4.34717H49.5154Z" fill="#5D43FF"/>
<path d="M53.2545 4.34717H9.64292C8.44264 4.34717 7.46934 3.3742 7.46934 2.17358C7.46934 0.9733 8.44231 0 9.64292 0H53.2545C54.4548 0 55.4281 0.972972 55.4281 2.17358C55.4281 3.3742 54.4548 4.34717 53.2545 4.34717Z" fill="#939598"/>
<path d="M54.4262 0.344971C54.6434 0.68331 54.7711 1.08472 54.7711 1.51668C54.7711 2.71696 53.7982 3.69026 52.5976 3.69026H8.98595C8.55399 3.69026 8.15258 3.56281 7.81424 3.34535C8.20087 3.94713 8.87459 4.34723 9.64292 4.34723H53.2549C54.4551 4.34723 55.4284 3.37426 55.4284 2.17365C55.4281 1.40532 55.0283 0.731597 54.4262 0.344971Z" fill="#808285"/>
<path d="M24.879 4.34717H38.0184V30.8145H24.879V4.34717Z" fill="white" fillOpacity="0.95"/>
<path d="M24.879 29.1721H38.0184V30.8145H24.879V29.1721Z" fill="#E6E7E8"/>
<path d="M51.1578 66.9676V48.0025C51.1578 46.8288 50.5317 45.7445 49.5154 45.1578L33.0912 35.6751C32.0748 35.0884 30.8227 35.0884 29.8063 35.6751L13.3821 45.1578C12.3658 45.7445 11.7397 46.8291 11.7397 48.0025V66.9676C11.7397 68.1412 12.3658 69.2256 13.3821 69.8122L29.8063 79.2949C30.8227 79.8816 32.0748 79.8816 33.0912 79.2949L49.5154 69.8122C50.5317 69.2256 51.1578 68.1412 51.1578 66.9676Z" fill="url(#paint0_linear_44_10186)"/>
<path d="M49.5154 45.1578L49.204 44.9778C49.4024 45.4048 49.5154 45.8732 49.5154 46.36V65.3251C49.5154 66.4988 48.8893 67.5831 47.873 68.1698L31.4487 77.6522C30.4324 78.2388 29.1802 78.2388 28.1639 77.6522L12.051 68.3495C12.3312 68.9519 12.7872 69.4686 13.3821 69.8119L29.8063 79.2943C30.8226 79.8809 32.0748 79.8809 33.0912 79.2943L49.5154 69.8119C50.5317 69.2252 51.1578 68.1406 51.1578 66.9672V48.0021C51.1578 46.8288 50.5317 45.7445 49.5154 45.1578Z" fill="#FFA91A"/>
<path d="M46.6096 64.3417V50.6285C46.6096 49.4548 45.9835 48.3704 44.9672 47.7838L33.0912 40.9273C32.0748 40.3406 30.8226 40.3406 29.8063 40.9273L17.9303 47.7838C16.9139 48.3704 16.2878 49.4551 16.2878 50.6285V64.3417C16.2878 65.5154 16.9139 66.5997 17.9303 67.1864L29.8063 74.0429C30.8226 74.6295 32.0748 74.6295 33.0912 74.0429L44.9672 67.1864C45.9835 66.5997 46.6096 65.5154 46.6096 64.3417Z" fill="#F79219"/>
<path d="M44.9672 47.7838L44.6558 47.6038C44.8542 48.0308 44.9672 48.4992 44.9672 48.986V62.6993C44.9672 63.873 44.3411 64.9573 43.3248 65.544L31.4487 72.4004C30.4324 72.9871 29.1802 72.9871 28.1639 72.4004L16.5992 65.7236C16.8794 66.3261 17.3354 66.8428 17.9303 67.1861L29.8063 74.0425C30.8226 74.6292 32.0748 74.6292 33.0912 74.0425L44.9672 67.1861C45.9835 66.5994 46.6096 65.5147 46.6096 64.3414V50.6281C46.6096 49.4548 45.9835 48.3704 44.9672 47.7838Z" fill="#EF7816"/>
<path d="M3.84681 58.7435L4.05638 59.7198C4.27679 60.7456 5.07797 61.5468 6.10382 61.7672L7.08008 61.9768C7.3156 62.0274 7.3156 62.3631 7.08008 62.4137L6.10382 62.6233C5.07797 62.8437 4.27679 63.6449 4.05638 64.6707L3.84681 65.647C3.79622 65.8825 3.46051 65.8825 3.40992 65.647L3.20035 64.6707C2.97993 63.6449 2.17876 62.8437 1.1529 62.6233L0.176645 62.4137C-0.058879 62.3631 -0.058879 62.0274 0.176645 61.9768L1.1529 61.7672C2.17876 61.5468 2.97993 60.7456 3.20035 59.7198L3.40992 58.7435C3.46051 58.5083 3.79622 58.5083 3.84681 58.7435Z" fill="#FFC91D"/>
<path d="M8.04252 68.6896L8.34966 70.1201C8.67256 71.6233 9.84656 72.7973 11.3497 73.1202L12.7803 73.4273C13.1252 73.5012 13.1252 73.9936 12.7803 74.0675L11.3497 74.3747C9.84656 74.6976 8.67256 75.8716 8.34966 77.3747L8.04252 78.8053C7.96862 79.1502 7.47622 79.1502 7.40231 78.8053L7.09517 77.3747C6.77227 75.8716 5.59827 74.6976 4.09512 74.3747L2.66457 74.0675C2.31966 73.9936 2.31966 73.5012 2.66457 73.4273L4.09512 73.1202C5.59827 72.7973 6.77227 71.6233 7.09517 70.1201L7.40231 68.6896C7.47622 68.3447 7.96862 68.3447 8.04252 68.6896Z" fill="#FFC91D"/>
<path d="M55.7852 37.38L56.0516 38.621C56.3314 39.9247 57.3501 40.943 58.6538 41.2232L59.8949 41.4896C60.1941 41.554 60.1941 41.9807 59.8949 42.0451L58.6538 42.3115C57.3501 42.5914 56.3318 43.61 56.0516 44.9138L55.7852 46.1548C55.7208 46.454 55.2941 46.454 55.2297 46.1548L54.9633 44.9138C54.6834 43.61 53.6648 42.5917 52.3611 42.3115L51.12 42.0451C50.8208 41.9807 50.8208 41.554 51.12 41.4896L52.3611 41.2232C53.6648 40.9434 54.6831 39.9247 54.9633 38.621L55.2297 37.38C55.2941 37.081 55.7208 37.081 55.7852 37.38Z" fill="#FFC91D"/>
<g clipPath="url(#clip1_44_10186)">
<path d="M38.4537 63.8625C32.0587 61.483 25.6265 62.8711 23.2098 63.8625C23.0239 59.9587 20.7931 58.0995 20.6072 57.9136C20.2353 57.7277 19.8635 52.7084 20.0494 53.0802C22.2803 58.0995 24.5111 59.0291 25.4406 59.0291C29.6048 58.7317 29.4065 55.9307 28.7868 54.5674L30.8317 50.8494C31.5754 51.9648 33.0254 54.27 32.8767 54.5674C31.5754 58.0995 34.5498 59.2149 35.8511 59.0291C39.9409 58.0996 41.2422 53.0802 41.4281 53.452C41.614 53.8238 41.4281 57.5419 41.0563 57.9137C38.4537 60.3304 38.6396 64.0484 38.4537 63.8625Z" fill="white" fillOpacity="0.95"/>
<path d="M23.2098 63.8625L23.0241 63.8714L23.0366 64.1345L23.2803 64.0345L23.2098 63.8625ZM38.4537 63.8625L38.5852 63.7311L38.5565 63.7024L38.5185 63.6883L38.4537 63.8625ZM41.0563 57.9137L41.1829 58.05L41.1878 58.0451L41.0563 57.9137ZM35.8511 59.0291L35.8774 59.2131L35.8849 59.212L35.8923 59.2104L35.8511 59.0291ZM32.8767 54.5674L32.7104 54.4843L32.7058 54.4935L32.7022 54.5031L32.8767 54.5674ZM30.8317 50.8494L30.9864 50.7462L30.8165 50.4913L30.6689 50.7598L30.8317 50.8494ZM28.7868 54.5674L28.6239 54.4778L28.579 54.5595L28.6176 54.6443L28.7868 54.5674ZM25.4406 59.0291V59.2154L25.4538 59.2145L25.4406 59.0291ZM20.0494 53.0802L20.2195 53.0046L20.2157 52.997L20.0494 53.0802ZM20.6072 57.9136L20.7386 57.7822L20.7173 57.7608L20.6903 57.7474L20.6072 57.9136ZM23.2803 64.0345C25.6662 63.0557 32.0488 61.6777 38.3889 64.0368L38.5185 63.6883C32.0686 61.2883 25.5868 62.6864 23.1392 63.6906L23.2803 64.0345ZM38.3223 63.994C38.3507 64.0224 38.4258 64.0781 38.5268 64.0458C38.6046 64.0209 38.6393 63.9584 38.6487 63.9411C38.673 63.896 38.6859 63.8385 38.6944 63.796C38.7137 63.7001 38.7329 63.5521 38.757 63.3766C38.8061 63.018 38.8806 62.5033 39.0291 61.9092C39.3266 60.7192 39.9181 59.2243 41.1828 58.0499L40.9298 57.7774C39.5919 59.0198 38.9751 60.5922 38.6684 61.819C38.5148 62.4332 38.4382 62.9642 38.3886 63.3261C38.3633 63.5107 38.3462 63.6416 38.3299 63.7228C38.3207 63.7689 38.316 63.7747 38.3213 63.7648C38.3237 63.7603 38.3301 63.7492 38.3421 63.7364C38.354 63.7236 38.3772 63.7032 38.4135 63.6916C38.5041 63.6626 38.5684 63.7143 38.5852 63.7311L38.3223 63.994ZM41.1878 58.0451C41.234 57.9989 41.2675 57.9394 41.293 57.8834C41.3197 57.8249 41.3435 57.7566 41.3651 57.6826C41.4084 57.5344 41.4469 57.349 41.4809 57.1421C41.549 56.7275 41.6018 56.21 41.6369 55.6955C41.672 55.1806 41.6896 54.6646 41.6867 54.2524C41.6852 54.0466 41.6786 53.864 41.666 53.7191C41.6597 53.6469 41.6517 53.5814 41.6415 53.5258C41.632 53.474 41.6182 53.4165 41.5944 53.3689L41.2619 53.5352C41.2613 53.5341 41.2678 53.5491 41.2758 53.5929C41.2832 53.6328 41.2899 53.6856 41.2956 53.7513C41.307 53.8824 41.3134 54.0542 41.3149 54.2551C41.3177 54.6561 41.3005 55.1626 41.2659 55.6702C41.2313 56.1782 41.1795 56.6831 41.114 57.0818C41.0812 57.2816 41.0456 57.4506 41.0082 57.5783C40.9896 57.6422 40.9715 57.6924 40.9546 57.7293C40.9463 57.7477 40.939 57.7611 40.9331 57.7705C40.927 57.7802 40.924 57.7831 40.9249 57.7822L41.1878 58.0451ZM41.5944 53.3689C41.5774 53.3348 41.5321 53.2654 41.4388 53.2494C41.3519 53.2345 41.2884 53.2783 41.2638 53.2979C41.2131 53.3384 41.1725 53.4022 41.143 53.452C41.0768 53.5636 40.9904 53.742 40.8865 53.9541C40.6749 54.386 40.3711 54.9991 39.9477 55.6513C39.0987 56.9592 37.7856 58.3988 35.8099 58.8478L35.8923 59.2104C38.0064 58.7299 39.3889 57.195 40.2595 55.8538C40.6959 55.1815 41.0079 54.5513 41.2204 54.1177C41.3285 53.8969 41.4063 53.7369 41.4628 53.6416C41.4946 53.5879 41.505 53.5811 41.4958 53.5884C41.492 53.5915 41.4469 53.6281 41.376 53.6159C41.2988 53.6027 41.2673 53.5461 41.2619 53.5352L41.5944 53.3689ZM35.8248 58.845C35.2268 58.9305 34.2152 58.7132 33.515 58.0569C33.1692 57.7327 32.9 57.3021 32.7919 56.7454C32.6836 56.1874 32.7348 55.4903 33.0511 54.6317L32.7022 54.5031C32.3679 55.4106 32.3029 56.1775 32.4269 56.8162C32.5512 57.4563 32.863 57.9552 33.2607 58.3281C34.0478 59.066 35.1741 59.3136 35.8774 59.2131L35.8248 58.845ZM33.0429 54.6505C33.0745 54.5874 33.0754 54.5208 33.0717 54.4743C33.0677 54.4237 33.056 54.37 33.0407 54.3167C33.01 54.2098 32.9582 54.0812 32.8934 53.9402C32.763 53.6568 32.569 53.2999 32.3496 52.9218C31.9102 52.1644 31.3595 51.3058 30.9864 50.7462L30.6771 50.9525C31.0476 51.5083 31.5938 52.36 32.028 53.1084C32.2455 53.4832 32.4326 53.8282 32.5556 54.0955C32.6173 54.2298 32.6602 54.3388 32.6833 54.4192C32.6949 54.4596 32.6998 54.487 32.701 54.5034C32.7027 54.524 32.6974 54.5102 32.7104 54.4843L33.0429 54.6505ZM30.6689 50.7598L28.6239 54.4778L28.9497 54.657L30.9946 50.939L30.6689 50.7598ZM28.6176 54.6443C28.9154 55.2995 29.1019 56.2824 28.7371 57.124C28.3805 57.9467 27.4675 58.6979 25.4274 58.8436L25.4538 59.2145C27.5779 59.0628 28.6478 58.2649 29.0782 57.2719C29.5004 56.2978 29.2779 55.1986 28.9561 54.4905L28.6176 54.6443ZM25.4406 58.8432C24.6254 58.8432 22.4415 58.0045 20.2193 53.0047L19.8796 53.1557C22.1191 58.1945 24.3968 59.215 25.4406 59.215V58.8432ZM20.2157 52.997C20.2096 52.9847 20.1997 52.9668 20.1849 52.9489C20.1727 52.9339 20.141 52.8987 20.0864 52.8825C20.0167 52.8619 19.9516 52.8836 19.9087 52.9189C19.8746 52.947 19.8582 52.9799 19.8516 52.9947C19.8372 53.0265 19.831 53.0597 19.8278 53.0805C19.8239 53.105 19.8212 53.1324 19.8193 53.161C19.8117 53.2732 19.8128 53.4476 19.8201 53.6588C19.8348 54.0847 19.8758 54.687 19.9341 55.3052C19.9924 55.9232 20.0684 56.5617 20.1538 57.0591C20.1963 57.3071 20.2421 57.5252 20.2905 57.6898C20.3145 57.7715 20.341 57.8462 20.3708 57.9068C20.3858 57.9372 20.4037 57.9683 20.4255 57.9964C20.4463 58.0232 20.4782 58.057 20.524 58.0799L20.6903 57.7474C20.7129 57.7586 20.7215 57.7714 20.7191 57.7683C20.7177 57.7665 20.7125 57.759 20.7043 57.7425C20.688 57.7093 20.6685 57.6574 20.6472 57.5849C20.6048 57.4408 20.5619 57.2392 20.5202 56.9963C20.4371 56.5119 20.3621 55.8839 20.3042 55.2703C20.2464 54.657 20.206 54.0625 20.1917 53.646C20.1844 53.436 20.1841 53.2779 20.1903 53.186C20.1918 53.1635 20.1935 53.148 20.1951 53.1382C20.1972 53.1246 20.1974 53.1322 20.1904 53.1477C20.1874 53.1543 20.1751 53.1812 20.1452 53.2058C20.1065 53.2377 20.0458 53.2583 19.9809 53.2391C19.931 53.2243 19.9043 53.193 19.8973 53.1845C19.8879 53.1729 19.8835 53.164 19.8832 53.1633L20.2157 52.997ZM20.4757 58.0451C20.6593 58.2287 22.8418 60.0437 23.0241 63.8714L23.3955 63.8537C23.2059 59.8737 20.9268 57.9704 20.7386 57.7822L20.4757 58.0451Z" fill="url(#paint1_linear_44_10186)"/>
<path d="M24.8829 51.9648L23.7675 54.0098C25.0688 54.7534 23.7675 56.6124 23.9534 56.7983C25.0688 57.356 27.6714 56.6124 27.4855 56.4265C25.8496 55.2367 26.0603 54.0717 26.3701 53.638L24.8829 51.9648Z" fill="white" fillOpacity="0.95"/>
<path d="M23.7675 54.0098L23.6043 53.9207L23.517 54.0807L23.6753 54.1712L23.7675 54.0098ZM24.8829 51.9648L25.0219 51.8413L24.8463 51.6438L24.7197 51.8758L24.8829 51.9648ZM26.3701 53.638L26.5214 53.746L26.6076 53.6253L26.5091 53.5145L26.3701 53.638ZM27.4855 56.4265L27.617 56.295L27.6067 56.2847L27.5949 56.2761L27.4855 56.4265ZM23.9534 56.7983L23.822 56.9297L23.8433 56.9511L23.8703 56.9646L23.9534 56.7983ZM23.9307 54.0988L25.0461 52.0539L24.7197 51.8758L23.6043 53.9207L23.9307 54.0988ZM24.744 52.0884L26.2312 53.7615L26.5091 53.5145L25.0219 51.8413L24.744 52.0884ZM26.2189 53.5299C26.033 53.7901 25.892 54.2442 26.017 54.7902C26.1425 55.3388 26.5319 55.9628 27.3762 56.5768L27.5949 56.2761C26.8033 55.7004 26.48 55.147 26.3794 54.7073C26.2782 54.2648 26.3974 53.9196 26.5214 53.746L26.2189 53.5299ZM27.3541 56.5579C27.3338 56.5377 27.3128 56.5038 27.3095 56.4589C27.3065 56.4172 27.3204 56.387 27.3285 56.3732C27.3415 56.3512 27.3519 56.3493 27.3298 56.364C27.2926 56.3888 27.2183 56.4249 27.1044 56.4671C26.8815 56.5496 26.5496 56.6401 26.1742 56.7083C25.7992 56.7765 25.3875 56.8213 25.0047 56.8157C24.6184 56.8101 24.2791 56.7533 24.0366 56.632L23.8703 56.9646C24.1855 57.1222 24.5897 57.1815 24.9993 57.1875C25.4124 57.1935 25.8489 57.1454 26.2407 57.0741C26.6322 57.003 26.9858 56.9075 27.2335 56.8158C27.3549 56.7708 27.462 56.7227 27.536 56.6734C27.5695 56.6511 27.6178 56.6147 27.649 56.5616C27.6663 56.5323 27.6844 56.4875 27.6804 56.4321C27.6761 56.3735 27.6489 56.3269 27.617 56.295L27.3541 56.5579ZM24.0849 56.6668C24.103 56.6849 24.1121 56.7039 24.1164 56.7167C24.1205 56.7288 24.1207 56.7366 24.1207 56.7368C24.1208 56.7373 24.1206 56.7342 24.1216 56.7263C24.1225 56.7187 24.1242 56.7084 24.1271 56.6951C24.1394 56.6384 24.1658 56.5584 24.2041 56.4511C24.2776 56.2445 24.3869 55.9593 24.4595 55.6565C24.5321 55.3542 24.5737 55.014 24.5007 54.6919C24.4257 54.3612 24.2319 54.061 23.8597 53.8484L23.6753 54.1712C23.9538 54.3303 24.0853 54.5414 24.1381 54.7742C24.1929 55.0156 24.1648 55.2912 24.098 55.5698C24.0312 55.848 23.9313 56.1089 23.8538 56.3264C23.8165 56.431 23.7819 56.5326 23.7638 56.6161C23.7548 56.6575 23.7473 56.7052 23.7492 56.7522C23.7511 56.7967 23.7626 56.8704 23.822 56.9297L24.0849 56.6668Z" fill="url(#paint2_linear_44_10186)"/>
<path d="M36.4183 51.9648L37.5337 54.0098C36.2324 54.7534 37.5337 56.6124 37.3478 56.7983C36.2324 57.356 33.6297 56.6124 33.8156 56.4265C35.4516 55.2367 35.2409 54.0717 34.931 53.638L36.4183 51.9648Z" fill="white" fillOpacity="0.95"/>
<path d="M37.5337 54.0098L37.6969 53.9207L37.7841 54.0807L37.6259 54.1712L37.5337 54.0098ZM36.4183 51.9648L36.2793 51.8413L36.4549 51.6438L36.5815 51.8758L36.4183 51.9648ZM34.931 53.638L34.7798 53.746L34.6936 53.6253L34.7921 53.5145L34.931 53.638ZM33.8156 56.4265L33.6842 56.295L33.6945 56.2847L33.7063 56.2761L33.8156 56.4265ZM37.3478 56.7983L37.4792 56.9297L37.4579 56.9511L37.4309 56.9646L37.3478 56.7983ZM37.3705 54.0988L36.2551 52.0539L36.5815 51.8758L37.6969 53.9207L37.3705 54.0988ZM36.5572 52.0884L35.07 53.7615L34.7921 53.5145L36.2793 51.8413L36.5572 52.0884ZM35.0823 53.5299C35.2682 53.7901 35.4092 54.2442 35.2842 54.7902C35.1587 55.3388 34.7693 55.9628 33.925 56.5768L33.7063 56.2761C34.4979 55.7004 34.8212 55.147 34.9218 54.7073C35.023 54.2648 34.9037 53.9196 34.7798 53.746L35.0823 53.5299ZM33.9471 56.5579C33.9673 56.5377 33.9884 56.5038 33.9917 56.4589C33.9947 56.4172 33.9808 56.387 33.9727 56.3732C33.9597 56.3512 33.9493 56.3493 33.9714 56.364C34.0085 56.3888 34.0829 56.4249 34.1968 56.4671C34.4197 56.5496 34.7515 56.6401 35.127 56.7083C35.502 56.7765 35.9137 56.8213 36.2965 56.8157C36.6828 56.8101 37.0221 56.7533 37.2646 56.632L37.4309 56.9646C37.1157 57.1222 36.7114 57.1815 36.3019 57.1875C35.8888 57.1935 35.4522 57.1454 35.0605 57.0741C34.669 57.003 34.3154 56.9075 34.0677 56.8158C33.9463 56.7708 33.8391 56.7227 33.7652 56.6734C33.7317 56.6511 33.6833 56.6147 33.6521 56.5616C33.6349 56.5323 33.6168 56.4875 33.6208 56.4321C33.6251 56.3735 33.6523 56.3269 33.6842 56.295L33.9471 56.5579ZM37.2163 56.6668C37.1982 56.6849 37.1891 56.7039 37.1848 56.7167C37.1807 56.7288 37.1805 56.7366 37.1805 56.7368C37.1804 56.7373 37.1806 56.7342 37.1796 56.7263C37.1787 56.7187 37.177 56.7084 37.1741 56.6951C37.1618 56.6384 37.1354 56.5584 37.0971 56.4511C37.0235 56.2445 36.9143 55.9593 36.8417 55.6565C36.7691 55.3542 36.7274 55.014 36.8005 54.6919C36.8755 54.3612 37.0693 54.061 37.4414 53.8484L37.6259 54.1712C37.3474 54.3303 37.2159 54.5414 37.1631 54.7742C37.1083 55.0156 37.1363 55.2912 37.2032 55.5698C37.27 55.848 37.3699 56.1089 37.4474 56.3264C37.4847 56.431 37.5192 56.5326 37.5374 56.6161C37.5464 56.6575 37.5539 56.7052 37.5519 56.7522C37.5501 56.7967 37.5386 56.8704 37.4792 56.9297L37.2163 56.6668Z" fill="url(#paint3_linear_44_10186)"/>
</g>
</g>
<defs>
<linearGradient id="paint0_linear_44_10186" x1="12.3859" y1="76.4902" x2="72.1469" y2="72.9592" gradientUnits="userSpaceOnUse">
<stop stopColor="#F0C53A"/>
<stop offset="1" stopColor="#F1DC7F"/>
</linearGradient>
<linearGradient id="paint1_linear_44_10186" x1="20.3525" y1="62.9199" x2="52.6715" y2="59.3599" gradientUnits="userSpaceOnUse">
<stop stopColor="#F0C53A"/>
<stop offset="1" stopColor="#F1DC7F"/>
</linearGradient>
<linearGradient id="paint2_linear_44_10186" x1="23.8286" y1="56.6348" x2="29.4857" y2="56.3556" gradientUnits="userSpaceOnUse">
<stop stopColor="#F0C53A"/>
<stop offset="1" stopColor="#F1DC7F"/>
</linearGradient>
<linearGradient id="paint3_linear_44_10186" x1="37.4726" y1="56.6348" x2="31.8154" y2="56.3556" gradientUnits="userSpaceOnUse">
<stop stopColor="#F0C53A"/>
<stop offset="1" stopColor="#F1DC7F"/>
</linearGradient>
<clipPath id="clip0_44_10186">
<rect width="60.1193" height="79.7349" fill="white"/>
</clipPath>
<clipPath id="clip1_44_10186">
<rect width="21.8125" height="20.5294" fill="white" transform="translate(20 47)"/>
</clipPath>
</defs>
</svg>
