<svg width="31" height="36" viewBox="0 0 31 36" fill="none" xmlns="http://www.w3.org/2000/svg">
<path d="M12.2933 15.3333C13.2933 15.3333 14.1033 16.0833 14.085 16.9999C14.085 17.9166 13.295 18.6666 12.2933 18.6666C11.31 18.6666 10.5 17.9166 10.5 16.9999C10.5 16.0833 11.2917 15.3333 12.2933 15.3333ZM18.7067 15.3333C19.7083 15.3333 20.5 16.0833 20.5 16.9999C20.5 17.9166 19.7083 18.6666 18.7067 18.6666C17.7233 18.6666 16.915 17.9166 16.915 16.9999C16.915 16.0833 17.705 15.3333 18.7067 15.3333ZM26.985 0.333252C28.9233 0.333252 30.5 1.94325 30.5 3.93825V35.3333L26.815 32.0083L24.74 30.0483L22.545 27.9649L23.455 31.2033H4.015C2.07667 31.2033 0.5 29.5933 0.5 27.5983V3.93825C0.5 1.94325 2.07667 0.333252 4.015 0.333252H26.9833H26.985ZM20.3683 23.1883C24.1567 23.0666 25.615 20.5283 25.615 20.5283C25.615 14.8933 23.145 10.3249 23.145 10.3249C20.6783 8.43659 18.3283 8.48825 18.3283 8.48825L18.0883 8.76825C21.0033 9.67825 22.3567 10.9916 22.3567 10.9916C20.7651 10.0949 19.0111 9.52382 17.1967 9.31159C16.0457 9.18159 14.8832 9.19279 13.735 9.34492C13.6317 9.34492 13.545 9.36325 13.4433 9.37992C12.8433 9.43325 11.385 9.65992 9.55167 10.4833C8.91833 10.7799 8.54 10.9916 8.54 10.9916C8.54 10.9916 9.96333 9.60825 13.0483 8.69825L12.8767 8.48825C12.8767 8.48825 10.5283 8.43659 8.06 10.3266C8.06 10.3266 5.59167 14.8933 5.59167 20.5283C5.59167 20.5283 7.03167 23.0649 10.82 23.1883C10.82 23.1883 11.4533 22.4016 11.97 21.7366C9.79167 21.0699 8.97 19.6699 8.97 19.6699C8.97 19.6699 9.14 19.7933 9.44833 19.9683C9.465 19.9849 9.48167 20.0033 9.51667 20.0199C9.56833 20.0566 9.62 20.0733 9.67167 20.1083C10.1 20.3533 10.5283 20.5449 10.9217 20.7033C11.625 20.9833 12.465 21.2633 13.4433 21.4566C14.9089 21.7439 16.4157 21.7495 17.8833 21.4733C18.7382 21.3207 19.5722 21.0684 20.3683 20.7216C20.9683 20.4933 21.6367 20.1599 22.34 19.6883C22.34 19.6883 21.4833 21.1233 19.2367 21.7716C19.7517 22.4366 20.37 23.1883 20.37 23.1883H20.3683Z" fill="url(#paint0_linear_44_10358)"/>
<defs>
<linearGradient id="paint0_linear_44_10358" x1="0.991803" y1="32.7812" x2="46.4843" y2="30.1802" gradientUnits="userSpaceOnUse">
<stop stopColor="#F0C53A"/>
<stop offset="1" stopColor="#F1DC7F"/>
</linearGradient>
</defs>
</svg>
