<svg width="33" height="32" viewBox="0 0 33 32" fill="none" xmlns="http://www.w3.org/2000/svg">
<path d="M32.5 16C32.5 20.2435 30.8143 24.3131 27.8137 27.3137C24.8131 30.3143 20.7435 32 16.5 32C12.2565 32 8.18687 30.3143 5.18629 27.3137C2.18571 24.3131 0.5 20.2435 0.5 16C0.5 11.7565 2.18571 7.68687 5.18629 4.68629C8.18687 1.68571 12.2565 0 16.5 0C20.7435 0 24.8131 1.68571 27.8137 4.68629C30.8143 7.68687 32.5 11.7565 32.5 16ZM17.074 11.812C15.518 12.46 12.406 13.8 7.742 15.832C6.986 16.132 6.588 16.428 6.552 16.716C6.492 17.202 7.102 17.394 7.932 17.656L8.282 17.766C9.098 18.032 10.198 18.342 10.768 18.354C11.288 18.366 11.866 18.154 12.504 17.714C16.862 14.772 19.112 13.286 19.252 13.254C19.352 13.23 19.492 13.202 19.584 13.286C19.678 13.368 19.668 13.526 19.658 13.568C19.598 13.826 17.204 16.05 15.966 17.202C15.58 17.562 15.306 17.816 15.25 17.874C15.1267 18 15.0013 18.124 14.874 18.246C14.114 18.978 13.546 19.526 14.904 20.422C15.558 20.854 16.082 21.208 16.604 21.564C17.172 21.952 17.74 22.338 18.476 22.822C18.662 22.942 18.842 23.072 19.016 23.196C19.678 23.668 20.276 24.092 21.01 24.024C21.438 23.984 21.88 23.584 22.104 22.384C22.634 19.55 23.676 13.412 23.916 10.882C23.9306 10.6717 23.9219 10.4604 23.89 10.252C23.8712 10.0838 23.7898 9.92892 23.662 9.818C23.48 9.69238 23.2631 9.6273 23.042 9.632C22.442 9.642 21.516 9.964 17.074 11.812Z" fill="url(#paint0_linear_44_10377)"/>
<defs>
<linearGradient id="paint0_linear_44_10377" x1="1.02459" y1="29.6667" x2="49.4929" y2="26.4337" gradientUnits="userSpaceOnUse">
<stop stopColor="#F0C53A"/>
<stop offset="1" stopColor="#F1DC7F"/>
</linearGradient>
</defs>
</svg>
