<svg width="33" height="32" viewBox="0 0 33 32" fill="none" xmlns="http://www.w3.org/2000/svg">
<path d="M24.4556 0.0126953H8.51903C4.10349 0.0126953 0.5 3.61618 0.5 8.03173V23.9937C0.5 28.3838 4.10349 31.9873 8.51903 31.9873H24.481C28.8965 31.9873 32.5 28.3838 32.5 23.9683V8.03173C32.4746 3.61618 28.8711 0.0126953 24.4556 0.0126953ZM24.4302 11.9905C24.4302 12.1681 24.4302 12.3458 24.4302 12.5234C24.4302 17.8525 20.3192 23.9937 12.7823 23.9937C10.473 23.9937 8.31602 23.3339 6.51428 22.1919C6.84417 22.2173 7.14869 22.2427 7.47859 22.2427C9.40722 22.2427 11.1582 21.6082 12.5539 20.5171C10.7522 20.4917 9.25496 19.3243 8.72205 17.7256C8.97581 17.7764 9.22958 17.8017 9.48335 17.8017C9.864 17.8017 10.2446 17.751 10.5745 17.6495C8.74742 17.2688 7.35171 15.6447 7.35171 13.6907V13.64C7.85924 13.9445 8.51903 14.1221 9.17883 14.1475C8.08763 13.437 7.35171 12.1935 7.35171 10.7978C7.35171 10.0619 7.55472 9.37669 7.90999 8.76765C9.94013 11.2038 12.9346 12.8025 16.3351 12.9802C16.2589 12.6757 16.2335 12.3711 16.2335 12.0666C16.2335 9.83347 18.0607 8.03173 20.3192 8.03173C21.4865 8.03173 22.5523 8.51388 23.3136 9.30056C24.2526 9.12292 25.1154 8.79303 25.9021 8.31087C25.5975 9.24981 24.9377 10.0365 24.1003 10.544C24.9377 10.4425 25.7244 10.2395 26.4604 9.9096C25.9021 10.7217 25.2169 11.4322 24.4302 11.9905Z" fill="url(#paint0_linear_44_10362)"/>
<defs>
<linearGradient id="paint0_linear_44_10362" x1="1.02459" y1="29.6558" x2="49.4925" y2="26.4203" gradientUnits="userSpaceOnUse">
<stop stopColor="#F0C53A"/>
<stop offset="1" stopColor="#F1DC7F"/>
</linearGradient>
</defs>
</svg>
